<?xml version="1.0" encoding="UTF-8" standalone="no"?>
<!-- Created with Inkscape (http://www.inkscape.org/) -->
<svg
   xmlns:svg="http://www.w3.org/2000/svg"
   xmlns="http://www.w3.org/2000/svg"
   version="1.0"
   width="885.82672"
   height="318.89764"
   id="svg2">
  <defs
     id="defs4" />
  <g
     id="layer1">
    <g
       transform="matrix(4.6833423,0,0,4.6833423,-2179.7583,-3914.9763)"
       id="g3546">
      <path
         d="M 479.855,882.52859 C 479.855,884.57109 478.62625,885.08234 477.605,885.08234 C 476.58375,885.08234 475.355,884.57109 475.355,882.52859 L 475.355,878.78859 L 476.15125,878.78859 L 476.15125,882.73609 C 476.15125,883.56734 476.515,884.44109 477.605,884.44109 C 478.69625,884.44109 479.06,883.56734 479.06,882.73609 L 479.06,878.78859 L 479.855,878.78859 L 479.855,882.52859 z"
         id="path2588"
         style="fill:#231f20;fill-opacity:1;fill-rule:nonzero;stroke:none" />
      <path
         d="M 488.39,878.78859 L 489.445,878.78859 L 491.92125,883.09109 C 492.05125,883.31609 492.25875,883.73109 492.33625,883.93984 L 492.38,883.93984 C 492.3625,883.73109 492.33625,883.43734 492.33625,883.16859 L 492.33625,878.78859 L 493.1325,878.78859 L 493.1325,884.95234 L 492.06875,884.95234 L 489.60125,880.59859 C 489.47125,880.37359 489.26375,879.95734 489.18625,879.74984 L 489.1425,879.74984 C 489.16,879.95734 489.18625,880.25109 489.18625,880.51984 L 489.18625,884.95234 L 488.39,884.95234 L 488.39,878.78859 z"
         id="path2590"
         style="fill:#231f20;fill-opacity:1;fill-rule:nonzero;stroke:none" />
      <path
         d="M 502.47125,884.95234 L 501.675,884.95234 L 501.675,878.78859 L 502.47125,878.78859 L 502.47125,884.95234 z"
         id="path2592"
         style="fill:#231f20;fill-opacity:1;fill-rule:nonzero;stroke:none" />
      <path
         d="M 512.75375,883.43734 C 512.84,883.68859 512.90125,883.93984 512.96125,884.18984 L 513.005,884.18984 C 513.065,883.93984 513.12625,883.68859 513.2125,883.43734 L 514.75375,878.78859 L 515.575,878.78859 L 513.4725,884.95234 L 512.4425,884.95234 L 510.39125,878.78859 L 511.265,878.78859 L 512.75375,883.43734 z"
         id="path2594"
         style="fill:#231f20;fill-opacity:1;fill-rule:nonzero;stroke:none" />
      <path
         d="M 523.48625,878.78859 L 527.19,878.78859 L 527.19,879.42984 L 524.2825,879.42984 L 524.2825,881.43734 L 527.04375,881.43734 L 527.04375,882.07859 L 524.2825,882.07859 L 524.2825,884.31109 L 527.2775,884.31109 L 527.2775,884.95234 L 523.48625,884.95234 L 523.48625,878.78859 z"
         id="path2596"
         style="fill:#231f20;fill-opacity:1;fill-rule:nonzero;stroke:none" />
      <path
         d="M 535.51625,878.78859 L 537.6375,878.78859 C 538.69375,878.78859 539.525,879.30734 539.525,880.44234 C 539.525,881.62859 538.71125,881.91359 538.4,882.01734 L 539.87125,884.95234 L 538.91875,884.95234 L 537.64625,882.16484 L 536.31375,882.16484 L 536.31375,884.95234 L 535.51625,884.95234 L 535.51625,878.78859 z M 536.31375,881.52484 L 537.56875,881.52484 C 538.46875,881.52484 538.72875,880.97859 538.72875,880.50234 C 538.72875,879.47234 537.83625,879.42984 537.48125,879.42984 L 536.31375,879.42984 L 536.31375,881.52484 z"
         id="path2598"
         style="fill:#231f20;fill-opacity:1;fill-rule:nonzero;stroke:none" />
      <path
         d="M 548.2925,883.48859 C 548.405,883.92234 548.75125,884.44109 549.57375,884.44109 C 550.3525,884.44109 550.7675,883.88734 550.7675,883.36734 C 550.7675,882.70234 550.34375,882.49359 550.11875,882.38984 L 548.63,881.69734 C 548.05,881.42859 547.7125,880.98734 547.7125,880.34734 C 547.7125,879.14359 548.76,878.65859 549.6425,878.65859 C 550.51625,878.65859 551.235,878.96234 551.52875,879.78359 L 550.75,880.04359 C 550.6025,879.46484 550.08375,879.29984 549.6425,879.29984 C 548.88,879.29984 548.56,879.73234 548.56,880.29484 C 548.56,880.90109 548.97625,881.09109 549.37375,881.26484 L 550.48125,881.74859 C 550.8625,881.91359 551.61625,882.28609 551.61625,883.35109 C 551.61625,883.93109 551.26125,885.08234 549.50375,885.08234 C 548.15375,885.08234 547.65125,884.23234 547.52125,883.77484 L 548.2925,883.48859 z"
         id="path2600"
         style="fill:#231f20;fill-opacity:1;fill-rule:nonzero;stroke:none" />
      <path
         d="M 560.70375,884.95234 L 559.9075,884.95234 L 559.9075,878.78859 L 560.70375,878.78859 L 560.70375,884.95234 z"
         id="path2602"
         style="fill:#231f20;fill-opacity:1;fill-rule:nonzero;stroke:none" />
      <path
         d="M 570.4225,879.48109 L 568.6325,879.48109 L 568.6325,878.78859 L 573.01125,878.78859 L 573.01125,879.48109 L 571.21875,879.48109 L 571.21875,884.95234 L 570.4225,884.95234 L 570.4225,879.48109 z"
         id="path2604"
         style="fill:#231f20;fill-opacity:1;fill-rule:nonzero;stroke:none" />
      <path
         d="M 580.93125,878.78859 L 584.635,878.78859 L 584.635,879.42984 L 581.7275,879.42984 L 581.7275,881.43734 L 584.4875,881.43734 L 584.4875,882.07859 L 581.7275,882.07859 L 581.7275,884.31109 L 584.72125,884.31109 L 584.72125,884.95234 L 580.93125,884.95234 L 580.93125,878.78859 z M 582.90375,877.16234 L 583.84,877.16234 L 582.61125,878.39984 L 582.005,878.39984 L 582.90375,877.16234 z"
         id="path2606"
         style="fill:#231f20;fill-opacity:1;fill-rule:nonzero;stroke:none" />
      <path
         d="M 479.86625,894.60359 C 479.86625,896.64609 478.63625,897.15609 477.615,897.15609 C 476.59375,897.15609 475.365,896.64609 475.365,894.60359 L 475.365,890.86484 L 476.16125,890.86484 L 476.16125,894.81109 C 476.16125,895.64109 476.525,896.51609 477.615,896.51609 C 478.70625,896.51609 479.06875,895.64109 479.06875,894.81109 L 479.06875,890.86484 L 479.86625,890.86484 L 479.86625,894.60359 z"
         id="path2608"
         style="fill:#231f20;fill-opacity:1;fill-rule:nonzero;stroke:none" />
      <path
         d="M 488.3475,890.86484 L 489.40375,890.86484 L 491.87875,895.16484 C 492.00875,895.38984 492.21625,895.80609 492.295,896.01359 L 492.3375,896.01359 C 492.32125,895.80609 492.295,895.51234 492.295,895.24359 L 492.295,890.86484 L 493.09,890.86484 L 493.09,897.02609 L 492.02625,897.02609 L 489.56,892.67359 C 489.43,892.44859 489.2225,892.03234 489.14375,891.82484 L 489.10125,891.82484 C 489.1175,892.03234 489.14375,892.32734 489.14375,892.59609 L 489.14375,897.02609 L 488.3475,897.02609 L 488.3475,890.86484 z"
         id="path2610"
         style="fill:#231f20;fill-opacity:1;fill-rule:nonzero;stroke:none" />
      <path
         d="M 502.37875,897.02609 L 501.5825,897.02609 L 501.5825,890.86359 L 502.37875,890.86359 L 502.37875,897.02609 z"
         id="path2612"
         style="fill:#231f20;fill-opacity:1;fill-rule:nonzero;stroke:none" />
      <path
         d="M 512.6075,895.51234 C 512.695,895.76359 512.755,896.01359 512.81625,896.26484 L 512.86,896.26484 C 512.92,896.01359 512.98,895.76359 513.06625,895.51234 L 514.6075,890.86484 L 515.43,890.86484 L 513.32625,897.02609 L 512.2975,897.02609 L 510.245,890.86484 L 511.12,890.86484 L 512.6075,895.51234 z"
         id="path2614"
         style="fill:#231f20;fill-opacity:1;fill-rule:nonzero;stroke:none" />
      <path
         d="M 523.28875,890.86484 L 526.99375,890.86484 L 526.99375,891.50359 L 524.085,891.50359 L 524.085,893.51234 L 526.84625,893.51234 L 526.84625,894.15234 L 524.085,894.15234 L 524.085,896.38734 L 527.08,896.38734 L 527.08,897.02609 L 523.28875,897.02609 L 523.28875,890.86484 z"
         id="path2616"
         style="fill:#231f20;fill-opacity:1;fill-rule:nonzero;stroke:none" />
      <path
         d="M 535.2675,890.86484 L 537.38875,890.86484 C 538.44375,890.86484 539.275,891.38359 539.275,892.51609 C 539.275,893.70234 538.46125,893.98984 538.15,894.09234 L 539.62125,897.02609 L 538.66875,897.02609 L 537.39625,894.23984 L 536.06375,894.23984 L 536.06375,897.02609 L 535.2675,897.02609 L 535.2675,890.86484 z M 536.06375,893.59859 L 537.31875,893.59859 C 538.21875,893.59859 538.47875,893.05359 538.47875,892.57859 C 538.47875,891.54734 537.5875,891.50359 537.2325,891.50359 L 536.06375,891.50359 L 536.06375,893.59859 z"
         id="path2618"
         style="fill:#231f20;fill-opacity:1;fill-rule:nonzero;stroke:none" />
      <path
         d="M 547.99,895.56359 C 548.10375,895.99734 548.45,896.51609 549.27125,896.51609 C 550.05125,896.51609 550.46625,895.96234 550.46625,895.44359 C 550.46625,894.77609 550.0425,894.56734 549.8175,894.46484 L 548.32875,893.77234 C 547.74875,893.50484 547.41125,893.06359 547.41125,892.42234 C 547.41125,891.21984 548.45875,890.73484 549.34125,890.73484 C 550.215,890.73484 550.93375,891.03734 551.2275,891.85984 L 550.44875,892.11984 C 550.30125,891.53859 549.7825,891.37484 549.34125,891.37484 C 548.57875,891.37484 548.25875,891.80859 548.25875,892.37109 C 548.25875,892.97609 548.675,893.16609 549.0725,893.33859 L 550.18,893.82484 C 550.56125,893.98984 551.315,894.36109 551.315,895.42609 C 551.315,896.00484 550.96,897.15609 549.2025,897.15609 C 547.8525,897.15609 547.35,896.30859 547.22125,895.84984 L 547.99,895.56359 z"
         id="path2620"
         style="fill:#231f20;fill-opacity:1;fill-rule:nonzero;stroke:none" />
      <path
         d="M 560.35,897.02609 L 559.55375,897.02609 L 559.55375,890.86359 L 560.35,890.86359 L 560.35,897.02609 z"
         id="path2622"
         style="fill:#231f20;fill-opacity:1;fill-rule:nonzero;stroke:none" />
      <path
         d="M 570.0175,891.55734 L 568.2275,891.55734 L 568.2275,890.86484 L 572.60625,890.86484 L 572.60625,891.55734 L 570.815,891.55734 L 570.815,897.02609 L 570.0175,897.02609 L 570.0175,891.55734 z"
         id="path2624"
         style="fill:#231f20;fill-opacity:1;fill-rule:nonzero;stroke:none" />
      <path
         d="M 582.075,894.50859 L 579.89375,890.86484 L 580.845,890.86484 L 582.23125,893.27984 C 582.32625,893.44234 582.40375,893.62609 582.48125,893.79859 L 582.49875,893.79859 C 582.5775,893.62609 582.66375,893.44234 582.76,893.27984 L 584.1525,890.86484 L 585.0525,890.86484 L 582.87125,894.50859 L 582.87125,897.02609 L 582.075,897.02609 L 582.075,894.50859 z"
         id="path2626"
         style="fill:#231f20;fill-opacity:1;fill-rule:nonzero;stroke:none" />
      <path
         d="M 475.405,887.41609 L 475.405,887.80359 L 584.92875,887.79359 L 584.92875,887.40484 L 475.405,887.41609 z"
         id="path2628"
         style="fill:#231f20;fill-opacity:1;fill-rule:nonzero;stroke:none" />
      <path
         d="M 480.87875,870.04484 L 481.73375,870.04484 C 483.515,870.04484 483.90625,869.36859 483.90625,867.51609 L 483.90625,861.88734 L 477.0675,849.63484 C 475.67875,847.14109 475.215,846.82109 473.47,846.82109 L 473.15,846.82109 L 473.15,845.75234 C 474.68125,845.78859 476.1775,845.85984 477.6375,845.85984 C 479.13375,845.85984 480.66625,845.78859 482.16125,845.75234 L 482.16125,846.82109 L 481.52,846.82109 C 480.7725,846.82109 480.2025,847.07109 480.2025,847.96109 C 480.2025,848.45984 480.63,849.42109 480.98625,850.06234 L 486.2575,859.57234 L 491.1725,850.16984 C 491.45875,849.63484 492.135,848.28109 492.135,847.64109 C 492.135,847.03484 491.7075,846.82109 490.745,846.82109 L 490.06875,846.82109 L 490.06875,845.75234 C 491.52875,845.78859 492.49125,845.85984 493.595,845.85984 C 494.77,845.85984 495.98125,845.78859 497.12125,845.75234 L 497.12125,846.82109 L 496.23125,846.82109 C 494.77125,846.82109 494.45,847.28359 493.34625,849.34984 L 487.04125,861.13984 L 487.04125,867.51609 C 487.04125,869.61734 487.825,870.04484 489.21375,870.04484 L 489.92625,870.04484 L 489.92625,871.11359 C 488.43,871.07734 486.89875,871.00609 485.4025,871.00609 C 483.835,871.00609 482.1975,871.07734 480.87875,871.11359 L 480.87875,870.04484 z"
         id="path2630"
         style="fill:#231f20;fill-opacity:1;fill-rule:nonzero;stroke:none" />
      <path
         d="M 512.90125,845.28984 C 519.98875,845.28984 526.1875,851.02484 526.1875,858.43234 C 526.1875,864.70234 521.3425,871.57609 512.79375,871.57609 C 505.1,871.57609 499.54375,865.77109 499.54375,858.71859 C 499.54375,850.77484 505.88375,845.28984 512.90125,845.28984 M 512.79375,846.78609 C 507.8075,846.78609 503.105,849.84984 503.105,858.11234 C 503.105,863.88234 506.88125,870.22359 513.0075,870.22359 C 519.5975,870.22359 522.625,865.37859 522.625,858.82484 C 522.625,853.08984 519.0275,846.78609 512.79375,846.78609"
         id="path2632"
         style="fill:#231f20;fill-opacity:1;fill-rule:nonzero;stroke:none" />
      <path
         d="M 531.77875,870.04484 L 532.42,870.04484 C 534.05875,870.04484 534.77125,869.43859 534.77125,867.12359 L 534.77125,849.74234 C 534.77125,847.42734 534.05875,846.82109 532.42,846.82109 L 531.77875,846.82109 L 531.77875,845.75234 C 533.025,845.78859 534.735,845.85984 536.33875,845.85984 C 538.72375,845.85984 540.43375,845.75234 542.00125,845.75234 C 548.30625,845.75234 549.44625,850.70359 549.44625,852.34234 C 549.44625,857.00859 546.16875,858.43234 544.3875,859.00359 L 549.16125,866.91109 C 551.12,870.11609 551.69,870.32984 554.575,870.50859 L 554.575,871.25609 C 553.89875,871.25609 553.2575,871.29109 552.58,871.29109 C 549.44625,871.29109 547.985,870.89984 546.0975,867.80109 L 541.93,860.99734 C 541.11125,859.67984 540.6475,859.60859 537.905,859.53734 L 537.905,866.26984 C 537.905,869.65359 538.51125,870.04484 539.93625,870.04484 L 540.96875,870.04484 L 540.96875,871.11359 C 539.40125,871.07734 537.905,871.00609 536.33875,871.00609 C 534.735,871.00609 533.025,871.07734 531.77875,871.11359 L 531.77875,870.04484 z M 537.905,857.93484 C 538.51125,858.14859 539.40125,858.18359 540.3275,858.18359 C 543.5325,858.18359 546.16875,856.72359 546.16875,853.01859 C 546.16875,851.45109 545.1,847.10609 540.14875,847.10609 C 539.29375,847.10609 538.6175,847.17734 537.905,847.24859 L 537.905,857.93484 z"
         id="path2634"
         style="fill:#231f20;fill-opacity:1;fill-rule:nonzero;stroke:none" />
      <path
         d="M 560.13125,870.04484 L 560.7725,870.04484 C 562.41125,870.04484 563.12375,869.43859 563.12375,867.12359 L 563.12375,849.74234 C 563.12375,847.42734 562.41125,846.82109 560.7725,846.82109 L 560.13125,846.82109 L 560.13125,845.75234 C 561.3775,845.78859 563.0875,845.85984 564.69125,845.85984 C 566.2575,845.85984 567.755,845.78859 569.32125,845.75234 L 569.32125,846.82109 L 568.2875,846.82109 C 566.86375,846.82109 566.2575,847.21359 566.2575,850.59734 L 566.2575,858.96734 L 574.05875,850.27609 C 574.415,849.88484 575.76875,848.45984 575.76875,847.74734 C 575.76875,847.10609 575.27,846.82109 574.5925,846.82109 L 573.95125,846.82109 L 573.95125,845.75234 C 575.27,845.78859 576.765,845.85984 578.155,845.85984 C 579.58,845.85984 580.96875,845.78859 582.39375,845.75234 L 582.39375,846.82109 L 581.7525,846.82109 C 580.0075,846.82109 579.40125,847.14109 577.3,849.34984 L 570.425,856.58109 L 579.615,867.33859 C 581.61,869.68859 582.64375,870.04484 584.1025,870.04484 L 584.6375,870.04484 L 584.6375,871.11359 C 583.4975,871.07734 582.32125,871.00609 581.1825,871.00609 C 580.0425,871.00609 578.8675,871.07734 577.7275,871.11359 C 577.55,870.08109 577.4425,869.54609 575.4125,867.23109 L 568.11,858.86109 L 566.2575,860.81984 L 566.2575,866.26984 C 566.2575,869.65359 566.86375,870.04484 568.2875,870.04484 L 569.32125,870.04484 L 569.32125,871.11359 C 567.755,871.07734 566.2575,871.00609 564.69125,871.00609 C 563.0875,871.00609 561.3775,871.07734 560.13125,871.11359 L 560.13125,870.04484 z"
         id="path2636"
         style="fill:#231f20;fill-opacity:1;fill-rule:nonzero;stroke:none" />
      <path
         d="M 630.335,890.48609 C 621.135,890.48609 613.16875,884.79859 613.16875,872.36609 L 613.16875,842.80859 L 592.61125,842.80859 L 592.61125,897.04484 L 646.85,897.04484 L 646.85,877.25609 C 645.21875,885.14234 639.485,890.48609 630.335,890.48609"
         id="path2638"
         style="fill:#e51535;fill-opacity:1;fill-rule:nonzero;stroke:none" />
      <path
         d="M 630.335,879.38234 C 635.27125,879.38234 636.78625,875.04484 636.78625,870.80234 L 636.78625,842.80859 L 624.16375,842.80859 L 624.16375,870.80234 C 624.16375,875.22109 625.73375,879.38234 630.335,879.38234"
         id="path2640"
         style="fill:#e51535;fill-opacity:1;fill-rule:nonzero;stroke:none" />
    </g>
  </g>
</svg>
